<?xml version="1.0" encoding="iso-8859-1"?>
<!-- Generator: Adobe Illustrator 19.0.0, SVG Export Plug-In . SVG Version: 6.00 Build 0)  -->
<svg version="1.1" id="Layer_1" xmlns="http://www.w3.org/2000/svg" xmlns:xlink="http://www.w3.org/1999/xlink" x="0px" y="0px"
	 viewBox="0 0 512 512" style="enable-background:new 0 0 512 512;" xml:space="preserve">
<g>
	<path style="fill:#D18B5C;" d="M255.959,301.579L255.959,301.579c10.564,0,19.204,8.64,19.204,19.202v172.018
		c0,10.562-8.64,19.202-19.202,19.202l0,0c-10.562,0-19.202-8.64-19.202-19.202V320.781
		C236.757,310.222,245.397,301.579,255.959,301.579z"/>
	<path style="fill:#FFC273;" d="M255.964,0c38.416,0,72.695,49.837,95.13,127.792H160.839C183.274,49.84,217.55,0,255.964,0z"/>
	<path style="fill:#C1EE89;" d="M351.096,127.792c11.447,39.781,19.809,86.882,24.064,138.42H136.767
		c4.256-51.543,12.622-98.639,24.072-138.42H351.096z"/>
	<path style="fill:#D33B3A;" d="M375.161,266.212c1.404,16.97,2.363,34.418,2.839,52.248c2.261,85.152-246.529,84.563-243.995-2.492
		c0.494-17.033,1.435-33.714,2.781-49.953l-0.016,0.194h238.391V266.212z"/>
	<g>
		<path style="fill:#DBFFB0;" d="M212.651,266.212h-33.475c1.293-46.951,6.695-93.082,16.124-138.42h32.881
			C218.77,168.853,213.534,214.921,212.651,266.212z"/>
		<path style="fill:#DBFFB0;" d="M332.76,266.212h-33.475c-0.883-51.294-6.119-97.362-15.529-138.42h32.881
			C326.062,173.132,331.464,219.261,332.76,266.212z"/>
	</g>
	<g>
		<path style="fill:#FFD8A6;" d="M228.18,127.792h-32.881c1.877-9.032,3.917-18.032,6.111-27.003
			c7.142-29.161,40.02-21.512,33.766,0C232.633,109.537,230.301,118.54,228.18,127.792z"/>
		<path style="fill:#FFD8A6;" d="M316.636,127.792h-32.881c-2.121-9.255-4.453-18.255-6.997-27.003
			c-6.251-21.512,26.625-29.161,33.766,0C312.72,109.76,314.759,118.761,316.636,127.792z"/>
	</g>
	<g>
		<path style="fill:#E66363;" d="M179.176,266.212h33.475c-0.321,18.634-0.068,37.956,0.768,57.981
			c0.944,22.542-32.789,22.382-33.766,0C178.803,304.728,178.648,285.4,179.176,266.212z"/>
		<path style="fill:#E66363;" d="M299.285,266.212h33.475c0.528,19.188,0.373,38.514-0.478,57.981
			c-0.978,22.382-34.71,22.542-33.766,0C299.353,304.168,299.606,284.848,299.285,266.212z"/>
	</g>
	<path style="opacity:0.5;fill:#FFD8A6;enable-background:new    ;" d="M203.104,53.983c3.767-13.937,20.61-32.352,36.705-39.878
		c14.93-6.984,18.35,5.299,8.004,10.083c-13.421,6.206-27.602,21.128-33.051,34.392C210.613,68.681,200.17,64.828,203.104,53.983z"
		/>
</g>
<g>
</g>
<g>
</g>
<g>
</g>
<g>
</g>
<g>
</g>
<g>
</g>
<g>
</g>
<g>
</g>
<g>
</g>
<g>
</g>
<g>
</g>
<g>
</g>
<g>
</g>
<g>
</g>
<g>
</g>
</svg>
