<?xml version="1.0" encoding="iso-8859-1"?>
<!-- Generator: Adobe Illustrator 19.0.0, SVG Export Plug-In . SVG Version: 6.00 Build 0)  -->
<svg version="1.1" id="Layer_1" xmlns="http://www.w3.org/2000/svg" xmlns:xlink="http://www.w3.org/1999/xlink" x="0px" y="0px"
	 viewBox="0 0 511.999 511.999" style="enable-background:new 0 0 511.999 511.999;" xml:space="preserve">
<g>
	<path style="fill:#FE7E8D;" d="M255.997,297.636c81.374,0,147.739-66.367,147.739-147.739S337.371,2.155,255.997,2.155
		c-81.371,0-147.736,66.367-147.736,147.739S174.628,297.636,255.997,297.636z"/>
	<path style="fill:#744C29;" d="M129.331,227.531c41.615,45.981,86.043,143.262,100.673,249.749h51.975
		c14.63-106.486,52.1-187.71,86.196-233.748c4.768-6.437-10.899-12.301-54.389-3.629c-33.042,6.587-69.855,4.227-104.662-6.156
		C143.612,214.205,120.656,217.941,129.331,227.531z"/>
	<g>
		<path style="fill:#FE7E8D;" d="M219.275,421.585c23.795,2.553,46.369,14.463,67.892,22.905c0.796-4.187,1.629-8.324,2.496-12.417
			c-34.15-19.494-46.117-48.536-84.057-61.081C210.657,386.897,215.26,403.776,219.275,421.585z"/>
		<path style="fill:#FE7E8D;" d="M311.176,355.203c-45.394,3.128-70.798-16.899-111.286-1.258
			c-1.946-5.505-3.941-10.882-5.983-16.123c49.712-34.614,91.913-25.619,145.418-47.709
			C329.387,309.124,319.786,330.904,311.176,355.203z"/>
	</g>
	<path style="opacity:0.5;fill:#E6F5FF;enable-background:new    ;" d="M201.537,199.725c-22.01,12.188-48.335-2.482-64.84-16.27
		c-16.505-13.786-41.156-12.675-59.962,0.49c36.785,5.808,124.978,121.861,150.433,307.127h57.664
		c25.452-185.268,113.646-301.319,150.433-307.127c-18.806-13.162-49.794-7.941-66.302,7.661
		c-16.505,15.602-43.737,23.024-64.838,9.026C268.961,177.307,238.038,179.511,201.537,199.725z"/>
	<path style="fill:#D2EDFC;" d="M352.893,511.999H159.1V499.63c0-6.802,5.564-12.366,12.366-12.366h169.057
		c6.802,0,12.369,5.564,12.369,12.366V511.999z"/>
	<path style="opacity:0.5;fill:#744C29;enable-background:new    ;" d="M252.441,0.033C156.59,2.019,94.575,96.063,112.006,108.418
		c16.769,11.885,42.201-48.834,62.118-42.706s-34.019,88.018,3.768,95.678c37.785,7.661,33.702-117.955,53.616-119.487
		c19.914-1.53-11.746,77.615,23.486,76.082c35.235-1.53,1.023-56.681,24.512-57.698c23.489-1.02,12.766,99.061,57.191,95.486
		s-28.597-86.295-4.595-90.893c23.999-4.595,56.65,55.143,68.756,51.601C415.836,112.095,362.013-2.239,252.441,0.033z"/>
	<path style="opacity:0.5;fill:#A67244;enable-background:new    ;" d="M181.581,35.945c13.043-12.23,32.509-25.911,57.834-24.594
		c15.899,0.83,9.426,14.729-0.303,13.542c-10.389-1.266-38.45,10.049-47.386,20.322C182.261,56.097,171.345,45.544,181.581,35.945z"
		/>
</g>
<g>
</g>
<g>
</g>
<g>
</g>
<g>
</g>
<g>
</g>
<g>
</g>
<g>
</g>
<g>
</g>
<g>
</g>
<g>
</g>
<g>
</g>
<g>
</g>
<g>
</g>
<g>
</g>
<g>
</g>
</svg>
