<?xml version="1.0" encoding="iso-8859-1"?>
<!-- Generator: Adobe Illustrator 19.0.0, SVG Export Plug-In . SVG Version: 6.00 Build 0)  -->
<svg version="1.1" id="Layer_1" xmlns="http://www.w3.org/2000/svg" xmlns:xlink="http://www.w3.org/1999/xlink" x="0px" y="0px"
	 viewBox="0 0 347.529 347.529" style="enable-background:new 0 0 347.529 347.529;" xml:space="preserve">
<g id="XMLID_1416_">
	<path id="XMLID_585_" style="fill:#FFA250;" d="M173.764,347.529L173.764,347.529c-13.738,0-24.978-11.24-24.978-24.978v-95.902
		c0-13.738,11.24-24.978,24.978-24.978l0,0c13.738,0,24.978,11.24,24.978,24.978v95.902
		C198.743,336.288,187.502,347.529,173.764,347.529z"/>
	<path id="XMLID_584_" style="fill:#FF5959;" d="M219.014,259.347h-90.5c-20.851,0-37.754-16.903-37.754-37.754V83.004
		C90.76,37.162,127.922,0,173.764,0l0,0c45.842,0,83.004,37.162,83.004,83.004v138.589
		C256.769,242.444,239.866,259.347,219.014,259.347z"/>
	<path id="XMLID_1417_" style="fill:#FFFEB9;" d="M256.769,126.369V83.004C256.769,37.162,219.606,0,173.764,0l0,0
		C127.922,0,90.76,37.162,90.76,83.004v43.365H256.769z"/>
	<g id="XMLID_1418_">
		<path id="XMLID_1419_" style="fill:#FFFEB9;" d="M165.225,124.046c-0.105,0.809-0.165,1.631-0.165,2.467v55.914
			c0,10.584,8.659,19.243,19.243,19.243l0,0c10.584,0,19.243-8.66,19.243-19.243v-57.914c0-0.836-0.06,0.342-0.165-0.467H165.225z"
			/>
		<path id="XMLID_1420_" style="fill:#FFFEB9;" d="M127.91,124.046v29.138c0,10.584,8.66,19.243,19.243,19.243l0,0
			c10.584,0,19.243-8.659,19.243-19.243v-29.138C166.396,124.046,127.91,124.046,127.91,124.046z"/>
		<path id="XMLID_1421_" style="fill:#FFFEB9;" d="M90.76,124.046v50.301c0,10.584,8.66,19.243,19.243,19.243
			s19.243-8.659,19.243-19.243v-50.301C129.246,124.046,90.76,124.046,90.76,124.046z"/>
	</g>
</g>
<g>
</g>
<g>
</g>
<g>
</g>
<g>
</g>
<g>
</g>
<g>
</g>
<g>
</g>
<g>
</g>
<g>
</g>
<g>
</g>
<g>
</g>
<g>
</g>
<g>
</g>
<g>
</g>
<g>
</g>
</svg>
