<?xml version="1.0" encoding="iso-8859-1"?>
<!-- Generator: Adobe Illustrator 19.0.0, SVG Export Plug-In . SVG Version: 6.00 Build 0)  -->
<svg version="1.1" id="Layer_1" xmlns="http://www.w3.org/2000/svg" xmlns:xlink="http://www.w3.org/1999/xlink" x="0px" y="0px"
	 viewBox="0 0 512.001 512.001" style="enable-background:new 0 0 512.001 512.001;" xml:space="preserve">
<g>
	<path style="fill:#D18B5C;" d="M256,301.579L256,301.579c10.564,0,19.204,8.643,19.204,19.202v172.019
		c0,10.562-8.64,19.202-19.202,19.202H256c-10.562,0-19.202-8.64-19.202-19.202V320.781
		C236.799,310.224,245.441,301.579,256,301.579z"/>
	<path style="fill:#C1EE89;" d="M131.882,342.198l-15.332,45.658c90.538,30.397,188.579,30.058,278.901-0.973l-15.564-45.469
		C299.069,365.813,212.863,366.089,131.882,342.198z"/>
	<path style="fill:#D33B3A;" d="M241.985,14.277L131.882,342.198c80.981,23.894,167.185,23.615,248.008-0.783L267.506,13.025
		C261.473-4.602,248.286-4.486,241.985,14.277z"/>
	<path style="fill:#E66363;" d="M250.07,65.844L250.07,65.844c4.939,1.438,7.802,6.65,6.366,11.587L219.6,204.038
		c-1.435,4.936-6.648,7.802-11.584,6.364h-0.003c-4.936-1.435-7.799-6.648-6.364-11.587l36.837-126.608
		C239.921,67.271,245.134,64.409,250.07,65.844z"/>
</g>
<g>
</g>
<g>
</g>
<g>
</g>
<g>
</g>
<g>
</g>
<g>
</g>
<g>
</g>
<g>
</g>
<g>
</g>
<g>
</g>
<g>
</g>
<g>
</g>
<g>
</g>
<g>
</g>
<g>
</g>
</svg>
