<?xml version="1.0" encoding="iso-8859-1"?>
<!-- Generator: Adobe Illustrator 19.0.0, SVG Export Plug-In . SVG Version: 6.00 Build 0)  -->
<svg version="1.1" id="Layer_1" xmlns="http://www.w3.org/2000/svg" xmlns:xlink="http://www.w3.org/1999/xlink" x="0px" y="0px"
	 viewBox="0 0 511.997 511.997" style="enable-background:new 0 0 511.997 511.997;" xml:space="preserve">
<g>
	<path style="fill:#D18B5C;" d="M255.998,301.402L255.998,301.402c10.571,0,19.22,8.646,19.22,19.217V492.78
		c0,10.571-8.649,19.217-19.22,19.217l0,0c-10.571,0-19.217-8.646-19.217-19.217V320.619
		C236.781,310.048,245.427,301.402,255.998,301.402z"/>
	<path style="fill:#FE7E8D;" d="M329.274,383.236c-29.383-13.934-118.491-7.052-151.063-39.173
		c-9.525,18.389-8.266,32.87,1.064,42.299C207.787,415.16,350.088,421.479,329.274,383.236z"/>
	<path style="fill:#F6E385;" d="M329.003,383.592c12.382-8.614,14.32-24.207,7.33-35.231
		c-14.288-22.543-121.493-5.221-158.123-41.342c-9.525,18.389-8.266,32.87,1.064,42.299
		C208.283,378.626,321.397,375.699,329.003,383.592z"/>
	<path style="fill:#FE7E8D;" d="M329.003,343.055c12.382-8.614,14.32-24.205,7.33-35.231
		c-14.288-22.543-121.493-5.221-158.123-41.342c-9.525,18.391-8.266,32.87,1.064,42.299
		C208.283,338.088,321.397,335.164,329.003,343.055z"/>
	<path style="fill:#F6E385;" d="M329.003,302.678c12.382-8.614,14.32-24.205,7.33-35.231
		c-14.288-22.54-121.493-5.218-158.123-41.342c-9.525,18.389-8.266,32.87,1.064,42.299
		C208.283,297.709,321.397,294.785,329.003,302.678z"/>
	<path style="fill:#FE7E8D;" d="M329.003,262.14c12.382-8.614,14.32-24.205,7.33-35.228
		c-14.288-22.543-121.493-5.221-158.123-41.344c-9.525,18.391-8.266,32.872,1.064,42.299
		C208.283,257.174,321.397,254.25,329.003,262.14z"/>
	<path style="fill:#F6E385;" d="M329.003,221.578c12.382-8.617,14.32-24.207,7.33-35.234
		c-14.288-22.54-121.493-5.221-158.123-41.342c-9.525,18.389-8.266,32.87,1.064,42.299
		C208.283,216.606,321.397,213.685,329.003,221.578z"/>
	<path style="fill:#FE7E8D;" d="M329.003,181.04c12.382-8.614,14.32-24.205,7.33-35.231c-14.288-22.54-121.493-5.221-158.123-41.342
		c-9.525,18.389-8.266,32.87,1.064,42.299C208.283,176.071,321.397,173.147,329.003,181.04z"/>
	<g>
		<path style="fill:#F6E385;" d="M329.003,140.527c12.382-8.614,14.32-24.207,7.33-35.231
			c-14.288-22.543-121.493-5.218-158.123-41.342c-9.525,18.391-8.266,32.87,1.064,42.299
			C208.283,135.558,321.397,132.631,329.003,140.527z"/>
		<path style="fill:#F6E385;" d="M329.003,61.923c29.008-29.093-24.122-58.281-77.781-61.1
			c-47.696-2.506-83.874-0.777-71.944,26.826C208.283,56.954,321.397,54.029,329.003,61.923z"/>
	</g>
	<path style="fill:#FE7E8D;" d="M329.003,99.989c12.382-8.611,14.32-24.205,7.33-35.228
		c-14.288-22.543-121.493-5.221-158.123-41.344c-9.523,18.391-8.266,32.867,1.067,42.299
		C208.283,95.023,321.397,92.096,329.003,99.989z"/>
	
		<ellipse transform="matrix(-0.1632 0.9866 -0.9866 -0.1632 237.5007 -165.6909)" style="fill:#FFF1AD;" cx="189.018" cy="17.875" rx="7.59" ry="4.454"/>
	
		<ellipse transform="matrix(-0.0796 0.9968 -0.9968 -0.0796 248.0713 -133.2122)" style="fill:#FFABB5;" cx="185.535" cy="47.919" rx="11.701" ry="6.869"/>
	
		<ellipse transform="matrix(-0.0797 0.9968 -0.9968 -0.0797 288.8241 -89.0689)" style="fill:#FFF1AD;" cx="185.528" cy="88.792" rx="11.701" ry="6.869"/>
	
		<ellipse transform="matrix(-0.0797 0.9968 -0.9968 -0.0797 329.548 -44.9278)" style="fill:#FFABB5;stroke:#FE7E8D;stroke-width:0.216;stroke-miterlimit:22.926;" cx="185.513" cy="129.661" rx="11.701" ry="6.869"/>
	
		<ellipse transform="matrix(-0.0797 0.9968 -0.9968 -0.0797 370.3032 -0.8154)" style="fill:#FFF1AD;" cx="185.528" cy="170.531" rx="11.701" ry="6.869"/>
	
		<ellipse transform="matrix(-0.0796 0.9968 -0.9968 -0.0796 411.013 43.2898)" style="fill:#FFABB5;" cx="185.521" cy="211.395" rx="11.699" ry="6.869"/>
	
		<ellipse transform="matrix(-0.0797 0.9968 -0.9968 -0.0797 451.729 87.4338)" style="fill:#FFF1AD;" cx="185.503" cy="252.243" rx="11.704" ry="6.869"/>
	
		<ellipse transform="matrix(-0.0797 0.9968 -0.9968 -0.0797 492.5085 131.5772)" style="fill:#FFABB5;" cx="185.516" cy="293.139" rx="11.701" ry="6.869"/>
	
		<ellipse transform="matrix(-0.0796 0.9968 -0.9968 -0.0796 533.2326 175.6526)" style="fill:#FFF1AD;" cx="185.524" cy="334.001" rx="11.701" ry="6.869"/>
	
		<ellipse transform="matrix(-0.0796 0.9968 -0.9968 -0.0796 573.9548 219.7918)" style="fill:#FFABB5;" cx="185.507" cy="374.87" rx="11.701" ry="6.869"/>
</g>
<g>
</g>
<g>
</g>
<g>
</g>
<g>
</g>
<g>
</g>
<g>
</g>
<g>
</g>
<g>
</g>
<g>
</g>
<g>
</g>
<g>
</g>
<g>
</g>
<g>
</g>
<g>
</g>
<g>
</g>
</svg>
